<svg xmlns="http://www.w3.org/2000/svg" fill="none" viewBox="0 0 52 52" width="256" height="256"><path fill="url(#a)" d="M25.8999 11.5125C14.5178 11.5125 4.7749 22.7848 4.7749 26.3C4.7749 29.98 12.2658 41.0875 25.8999 41.0875C39.534 41.0875 47.0249 29.98 47.0249 26.3C47.0249 22.7848 37.2821 11.5125 25.8999 11.5125ZM25.8999 32.6375C24.6465 32.6375 23.4212 32.2659 22.379 31.5695C21.3368 30.8731 20.5245 29.8833 20.0448 28.7253C19.5651 27.5673 19.4396 26.293 19.6842 25.0637C19.9287 23.8343 20.5323 22.7051 21.4186 21.8188C22.3049 20.9324 23.4342 20.3288 24.6635 20.0843C25.8929 19.8398 27.1671 19.9653 28.3252 20.445C29.4832 20.9246 30.473 21.7369 31.1693 22.7791C31.8657 23.8213 32.2374 25.0466 32.2374 26.3C32.2374 27.9809 31.5697 29.5928 30.3812 30.7813C29.1927 31.9698 27.5807 32.6375 25.8999 32.6375Z"></path><defs><linearGradient id="a" x1="47.107" x2="26.505" y1="11.57" y2="52.128" gradientUnits="userSpaceOnUse"><stop stop-color="#854d9c" class="stopColor854D9C svgShape"></stop><stop offset="1" stop-color="#cd4ed3" ></stop></linearGradient></defs></svg>