<svg  viewBox="0 0 20 20" fill="none" xmlns="http://www.w3.org/2000/svg">
<path fill-rule="evenodd" clip-rule="evenodd" d="M18.5796 5.25895C18.8968 5.39492 19.0437 5.76235 18.9078 6.07961L18.3333 5.83341C18.9078 6.07961 18.9079 6.07946 18.9078 6.07961L18.9072 6.08101L18.9063 6.08308L18.9037 6.08921L18.8947 6.10928C18.8872 6.12605 18.8766 6.14957 18.8627 6.1793C18.835 6.23876 18.7945 6.3232 18.7407 6.42854C18.6333 6.63908 18.473 6.93398 18.2571 7.28046C17.9024 7.84966 17.3937 8.56479 16.7183 9.2752L17.5253 10.0822C17.7693 10.3262 17.7693 10.722 17.5253 10.966C17.2812 11.2101 16.8855 11.2101 16.6414 10.966L15.8076 10.1322C15.2578 10.5928 14.6274 11.0251 13.9126 11.3803L14.6906 12.5759C14.8788 12.8652 14.7969 13.2524 14.5076 13.4406C14.2182 13.6289 13.8311 13.547 13.6428 13.2576L12.7352 11.8627C12.0857 12.0748 11.3826 12.219 10.625 12.2706V13.75C10.625 14.0953 10.3452 14.375 10 14.375C9.65483 14.375 9.375 14.0953 9.375 13.75V12.2706C8.64083 12.2205 7.95766 12.0836 7.32493 11.8821L6.42987 13.2577C6.24162 13.547 5.85447 13.629 5.56514 13.4407C5.27582 13.2524 5.19389 12.8653 5.38214 12.576L6.14249 11.4074C5.42217 11.0556 4.78659 10.6252 4.2321 10.1653L3.43128 10.9661C3.18721 11.2102 2.79148 11.2102 2.5474 10.9661C2.30332 10.722 2.30332 10.3263 2.5474 10.0822L3.31721 9.31245C2.63007 8.59604 2.11279 7.8722 1.75239 7.29564C1.53328 6.9451 1.37058 6.64645 1.26165 6.43315C1.20715 6.32643 1.166 6.24086 1.13789 6.1806C1.12383 6.15047 1.11302 6.12665 1.10542 6.10965L1.09643 6.08932L1.09373 6.08311L1.09282 6.08102L1.09248 6.08023C1.09242 6.08008 1.09222 6.07961 1.66668 5.83341L1.09248 6.08023C0.956516 5.76296 1.10322 5.39492 1.42048 5.25895C1.73749 5.12309 2.10457 5.2697 2.24082 5.58643C2.24087 5.58654 2.24077 5.58632 2.24082 5.58643L2.24161 5.58825L2.24667 5.59968C2.25158 5.61068 2.25958 5.62834 2.27068 5.65215C2.29291 5.69978 2.32755 5.77195 2.37488 5.86464C2.46962 6.05015 2.61477 6.31697 2.81235 6.63308C3.20869 7.26714 3.80972 8.08932 4.62976 8.85137C5.35134 9.52204 6.23557 10.1397 7.29312 10.5466C8.08853 10.8526 8.98792 11.0417 10 11.0417C11.0347 11.0417 11.9517 10.844 12.7604 10.5258C13.8116 10.112 14.6898 9.49029 15.4056 8.81837C16.2136 8.06005 16.8057 7.24605 17.1962 6.61941C17.3909 6.307 17.5338 6.04363 17.6272 5.86064C17.6738 5.7692 17.7079 5.69805 17.7298 5.65111C17.7407 5.62765 17.7487 5.61026 17.7535 5.59945L17.7584 5.58821L17.7589 5.58721C17.7589 5.58713 17.7588 5.5873 17.7589 5.58721M18.5796 5.25895C18.2623 5.123 17.8949 5.27011 17.7589 5.58721L18.5796 5.25895ZM2.24082 5.58643C2.24087 5.58654 2.24077 5.58632 2.24082 5.58643Z" fill="url(#paint0_linear_29_4421)"/>
<defs>
<linearGradient id="paint0_linear_29_4421" x1="10.0001" y1="5.20845" x2="10.0001" y2="14.3751" gradientUnits="userSpaceOnUse">
<stop stop-color="#854D9C"/>
<stop offset="1" stop-color="#CD4ED3"/>
</linearGradient>
</defs>
</svg>
